<?xml version="1.0" encoding="UTF-8" standalone="no"?>
<svg
   xmlns:dc="http://purl.org/dc/elements/1.1/"
   xmlns:cc="http://creativecommons.org/ns#"
   xmlns:rdf="http://www.w3.org/1999/02/22-rdf-syntax-ns#"
   xmlns:svg="http://www.w3.org/2000/svg"
   xmlns="http://www.w3.org/2000/svg"
   xmlns:sodipodi="http://sodipodi.sourceforge.net/DTD/sodipodi-0.dtd"
   xmlns:inkscape="http://www.inkscape.org/namespaces/inkscape"
   viewBox="0 0 24 24"
   version="1.1"
   id="svg8"
   sodipodi:docname="Tokyo Menu.svg"
   inkscape:version="0.92.3 (2405546, 2018-03-11)">
  <metadata
     id="metadata14">
    <rdf:RDF>
      <cc:Work
         rdf:about="">
        <dc:format>image/svg+xml</dc:format>
        <dc:type
           rdf:resource="http://purl.org/dc/dcmitype/StillImage" />
        <dc:title></dc:title>
      </cc:Work>
    </rdf:RDF>
  </metadata>
  <defs
     id="defs12" />
  <sodipodi:namedview
     pagecolor="#ffffff"
     bordercolor="#666666"
     borderopacity="1"
     objecttolerance="10"
     gridtolerance="10"
     guidetolerance="10"
     inkscape:pageopacity="0"
     inkscape:pageshadow="2"
     inkscape:window-width="2446"
     inkscape:window-height="1363"
     id="namedview10"
     showgrid="false"
     inkscape:zoom="26.198724"
     inkscape:cx="-0.83813635"
     inkscape:cy="19.976074"
     inkscape:window-x="103"
     inkscape:window-y="35"
     inkscape:window-maximized="1"
     inkscape:current-layer="svg8" />
  <path
     d="M20,14H4c-1.105,0-2-0.895-2-2v0c0-1.105,0.895-2,2-2h16c1.105,0,2,0.895,2,2v0C22,13.105,21.105,14,20,14z"
     opacity=".35"
     fill="#6868AC"
     id="path2"
     style="fill:#a8d475;fill-opacity:1;opacity:1" />
  <path
     d="M20,7H4C2.895,7,2,6.105,2,5v0c0-1.105,0.895-2,2-2h16c1.105,0,2,0.895,2,2v0C22,6.105,21.105,7,20,7z"
     fill="#6868AC"
     id="path4"
     style="fill:#4da7b4;fill-opacity:1" />
  <path
     d="M20,21H4c-1.105,0-2-0.895-2-2v0c0-1.105,0.895-2,2-2h16c1.105,0,2,0.895,2,2v0C22,20.105,21.105,21,20,21z"
     fill="#6868AC"
     id="path6"
     style="fill:#b699e9;fill-opacity:1" />
</svg>
